<svg xmlns="http://www.w3.org/2000/svg" xmlns:xlink="http://www.w3.org/1999/xlink" viewBox="0 0 32 32" fill="#5B5B5B">
    <path d="M16 4C9.382813 4 4 9.382813 4 16C4 22.617188 9.382813 28 16 28C22.617188 28 28 22.617188 28 16C28 9.382813 22.617188 4 16 4 Z M 16 6C21.535156 6 26 10.464844 26 16C26 21.535156 21.535156 26 16 26C10.464844 26 6 21.535156 6 16C6 10.464844 10.464844 6 16 6 Z M 12 10C10.761719 10 9.820313 10.691406 9.1875 11.28125C8.554688 11.871094 8.15625 12.4375 8.15625 12.4375L9.84375 13.5625C9.84375 13.5625 10.089844 13.128906 10.53125 12.71875C10.972656 12.308594 11.546875 12 12 12L15 12L15 10 Z M 17 10L17 12L20 12C20.453125 12 21.027344 12.308594 21.46875 12.71875C21.910156 13.128906 22.15625 13.5625 22.15625 13.5625L23.84375 12.4375C23.84375 12.4375 23.445313 11.871094 22.8125 11.28125C22.179688 10.691406 21.238281 10 20 10 Z M 8.5 14C8.5 14 7 16.671875 7 17.5C7 18.328125 7.671875 19 8.5 19C9.328125 19 10 18.328125 10 17.5C10 16.671875 8.5 14 8.5 14 Z M 16 16C13.664063 16 12.066406 17.234375 11.1875 18.40625C10.308594 19.578125 10.03125 20.75 10.03125 20.75L9.71875 22L22.28125 22L21.96875 20.75C21.96875 20.75 21.691406 19.578125 20.8125 18.40625C19.933594 17.234375 18.335938 16 16 16 Z M 16 18C17.671875 18 18.566406 18.765625 19.1875 19.59375C19.339844 19.800781 19.300781 19.808594 19.40625 20L12.59375 20C12.699219 19.808594 12.660156 19.800781 12.8125 19.59375C13.433594 18.765625 14.328125 18 16 18Z" fill="#5B5B5B" />
</svg>