<svg xmlns="http://www.w3.org/2000/svg" xmlns:xlink="http://www.w3.org/1999/xlink" viewBox="0 0 32 32" fill="#5B5B5B">
    <path d="M16 4C9.3845336 4 4 9.3845336 4 16C4 22.615466 9.3845336 28 16 28C22.615466 28 28 22.615466 28 16C28 9.3845336 22.615466 4 16 4 z M 16 6C21.534534 6 26 10.465466 26 16C26 21.534534 21.534534 26 16 26C10.465466 26 6 21.534534 6 16C6 10.465466 10.465466 6 16 6 z M 9.6074219 13.205078L8.3925781 14.794922C8.3925781 14.794922 9.914756 16 12 16C14.085244 16 15.607422 14.794922 15.607422 14.794922L14.392578 13.205078C14.392578 13.205078 13.296756 14 12 14C10.703244 14 9.6074219 13.205078 9.6074219 13.205078 z M 17.607422 13.205078L16.392578 14.794922C16.392578 14.794922 17.914756 16 20 16C22.085244 16 23.607422 14.794922 23.607422 14.794922L22.392578 13.205078C22.392578 13.205078 21.296756 14 20 14C18.703244 14 17.607422 13.205078 17.607422 13.205078 z M 16 19C13.914756 19 12.392578 20.205078 12.392578 20.205078L13.607422 21.794922C13.607422 21.794922 14.703244 21 16 21C17.296756 21 18.392578 21.794922 18.392578 21.794922L19.607422 20.205078C19.607422 20.205078 18.085244 19 16 19 z" fill="#5B5B5B" />
</svg>