<svg xmlns="http://www.w3.org/2000/svg" xmlns:xlink="http://www.w3.org/1999/xlink" viewBox="0 0 32 32" fill="#5B5B5B">
    <path d="M16 3C8.832 3 3 8.832 3 16C3 23.168 8.832 29 16 29C23.168 29 29 23.168 29 16C29 8.832 23.168 3 16 3 z M 16 5C22.065 5 27 9.935 27 16C27 22.065 22.065 27 16 27C9.935 27 5 22.065 5 16C5 9.935 9.935 5 16 5 z M 11.5 11 A 1.5 3 0 0 0 11.5 17 A 1.5 3 0 0 0 11.5 11 z M 20.5 11 A 1.5 3 0 0 0 20.5 17 A 1.5 3 0 0 0 20.5 11 z M 9 19C9 19 10.605 24 16 24C21.395 24 23 19 23 19L9 19 z" fill="#5B5B5B" />
</svg>