<svg xmlns="http://www.w3.org/2000/svg" xmlns:xlink="http://www.w3.org/1999/xlink" viewBox="0 0 32 32" fill="#5B5B5B">
    <path d="M9 4C8.972656 4 8.042969 3.988281 7.0625 4.46875C6.066406 4.957031 5 6.140625 5 8L7 8C7 6.796875 7.433594 6.496094 7.9375 6.25C8.441406 6.003906 8.96875 6 8.96875 6L9 6C10.109375 6 10.417969 6.445313 10.6875 6.96875C10.957031 7.492188 11 8.03125 11 8.03125C11 8.03125 10.992188 8.5625 10.75 9.0625C10.507813 9.5625 10.222656 10 9 10L8 10L8 13L10 13L10 11.71875C11.238281 11.398438 12.183594 10.722656 12.5625 9.9375C13.046875 8.9375 13 7.96875 13 7.96875C13 7.96875 12.972656 7.007813 12.46875 6.03125C11.96875 5.0625 10.808594 4.011719 9.03125 4C9.019531 4 9.011719 4 9 4 Z M 16 4C15.222656 4 14.457031 4.078125 13.71875 4.21875C14.160156 4.785156 14.492188 5.425781 14.71875 6.09375C15.136719 6.039063 15.566406 6 16 6C21.515625 6 26 10.484375 26 16C26 21.515625 21.515625 26 16 26C10.484375 26 6 21.515625 6 16C6 15.632813 6.023438 15.265625 6.0625 14.90625L6.0625 10L5.625 10C4.59375 11.769531 4 13.808594 4 16C4 22.617188 9.382813 28 16 28C22.617188 28 28 22.617188 28 16C28 9.382813 22.617188 4 16 4 Z M 14.5 12C13.671875 12 13 12.671875 13 13.5C13 14.328125 13.671875 15 14.5 15C15.328125 15 16 14.328125 16 13.5C16 12.671875 15.328125 12 14.5 12 Z M 21.5 12C20.671875 12 20 12.671875 20 13.5C20 14.328125 20.671875 15 21.5 15C22.328125 15 23 14.328125 23 13.5C23 12.671875 22.328125 12 21.5 12 Z M 8 14L8 16L10 16L10 14 Z M 23 18C15.949219 18 12 21.53125 12 21.53125L13.34375 23C13.34375 23 16.597656 20 23 20Z" fill="#5B5B5B" />
</svg>