<svg xmlns="http://www.w3.org/2000/svg" xmlns:xlink="http://www.w3.org/1999/xlink" viewBox="0 0 32 32" fill="#5B5B5B">
    <path d="M16 3C8.832 3 3 8.832 3 16C3 23.168 8.832 29 16 29C23.168 29 29 23.168 29 16C29 8.832 23.168 3 16 3 z M 16 5C22.065 5 27 9.935 27 16C27 22.065 22.065 27 16 27C9.935 27 5 22.065 5 16C5 9.935 9.935 5 16 5 z M 10.054688 11.167969L8.9453125 12.832031L10.697266 14L8.9453125 15.167969L10.054688 16.832031L14.302734 14L10.054688 11.167969 z M 21.945312 11.167969L17.697266 14L21.945312 16.832031L23.054688 15.167969L21.302734 14L23.054688 12.832031L21.945312 11.167969 z M 16 19C13.396 19 11.665734 21.15875 11.052734 22.34375C10.867734 22.70075 11.205891 23.101562 11.587891 22.976562C12.604891 22.642562 14.349 22 16 22C17.651 22 19.395109 22.643563 20.412109 22.976562C20.795109 23.102562 21.132266 22.70075 20.947266 22.34375C20.334266 21.15975 18.604 19 16 19 z" fill="#5B5B5B" />
</svg>