<svg xmlns="http://www.w3.org/2000/svg" xmlns:xlink="http://www.w3.org/1999/xlink" viewBox="0 0 32 32" fill="#5B5B5B">
    <path d="M16 4C9.3844239 4 4 9.3844287 4 16C4 22.615571 9.3844239 28 16 28C22.615576 28 28 22.615571 28 16C28 9.3844287 22.615576 4 16 4 z M 16 6C21.534697 6 26 10.465307 26 16C26 21.534693 21.534697 26 16 26C10.465303 26 6 21.534693 6 16C6 10.465307 10.465303 6 16 6 z M 10 11L10 13L14 13L14 11L10 11 z M 18 11L18 13L22 13L22 11L18 11 z M 9 15C9 15 11 23 16 23C21 23 23 15 23 15L9 15 z" fill="#5B5B5B" />
</svg>